<?xml version="1.0" standalone="no"?>
<!DOCTYPE svg PUBLIC "-//W3C//DTD SVG 20010904//EN"
 "http://www.w3.org/TR/2001/REC-SVG-20010904/DTD/svg10.dtd">
<svg version="1.0" xmlns="http://www.w3.org/2000/svg"
 width="512.000000pt" height="512.000000pt" viewBox="0 0 512.000000 512.000000"
 preserveAspectRatio="xMidYMid meet">
<metadata>
Created by potrace 1.14, written by Peter Selinger 2001-2017
</metadata>
<g transform="translate(0.000000,512.000000) scale(0.100000,-0.100000)"
fill="#000000" stroke="none">
<path d="M2515 5069 c-22 -23 -62 -58 -90 -79 -65 -48 -153 -137 -172 -173
-19 -37 -29 -27 -14 14 6 18 10 34 8 36 -8 7 -111 -105 -150 -162 -22 -33 -53
-89 -69 -125 -15 -36 -28 -59 -29 -52 -1 6 -3 17 -4 22 -1 6 -3 27 -4 48 l-2
37 -25 -30 c-68 -81 -134 -231 -148 -334 -3 -24 -7 -46 -9 -47 -2 -2 -15 27
-29 64 l-27 67 -34 -75 c-45 -97 -58 -153 -66 -275 l-6 -100 -37 58 c-21 31
-38 63 -39 70 -1 22 -36 -67 -48 -124 -12 -53 -16 -210 -6 -259 17 -92 21 -90
-44 -20 -34 36 -61 63 -62 60 0 -3 -3 -14 -5 -25 -3 -11 -6 -61 -9 -110 -3
-79 0 -112 20 -210 3 -12 14 -47 25 -79 l19 -57 -52 43 c-29 23 -54 45 -57 48
-38 39 -41 36 -39 -39 3 -101 32 -218 79 -318 21 -45 36 -83 32 -83 -4 0 -23
10 -42 23 -19 13 -52 34 -74 47 l-38 23 6 -39 c21 -140 69 -258 153 -376 21
-29 33 -50 28 -46 -15 8 -166 78 -170 78 -8 0 36 -124 63 -178 26 -50 92 -153
112 -172 3 -3 21 -22 40 -43 l34 -37 -51 15 c-28 8 -69 22 -92 29 -40 15 -40
15 -32 -7 34 -89 132 -227 218 -308 69 -64 66 -68 -29 -43 -33 8 -62 13 -65
11 -7 -8 45 -86 101 -152 45 -53 114 -118 196 -183 l25 -20 -50 9 c-27 5 -66
12 -84 15 l-35 6 40 -48 c53 -65 137 -144 231 -216 l78 -61 -40 7 c-22 3 -53
8 -70 11 -29 5 -28 3 25 -48 30 -29 93 -86 140 -126 47 -41 95 -83 106 -95 12
-11 47 -43 79 -70 31 -27 61 -61 67 -75 22 -60 85 -339 103 -456 3 -22 8 -53
10 -70 6 -32 11 -76 21 -165 10 -88 19 -85 29 10 3 36 8 76 10 90 2 14 6 66
10 115 3 50 8 113 10 140 5 63 13 177 20 280 13 195 26 338 32 347 2 5 -56 70
-130 145 -174 178 -259 279 -369 438 -53 76 -155 255 -145 255 2 0 28 -39 57
-87 122 -201 308 -413 516 -591 34 -29 67 -52 73 -52 6 0 12 15 12 33 1 17 3
41 4 52 8 70 15 151 20 225 3 47 8 108 10 135 2 28 5 91 5 140 l1 90 -133 135
c-194 196 -318 355 -427 545 -66 115 -66 134 0 24 97 -160 169 -250 334 -415
86 -86 218 -204 230 -204 4 0 8 216 6 415 l-2 159 -82 81 c-67 65 -157 165
-209 230 -44 56 -60 78 -95 130 -48 71 -107 175 -100 175 3 0 17 -21 33 -47
50 -87 162 -229 256 -324 87 -89 178 -169 191 -169 5 0 1 248 -8 394 -4 79 -4
80 -53 130 -93 96 -179 202 -204 250 -14 27 -11 23 47 -49 45 -56 131 -146
182 -189 l23 -19 -6 109 c-3 60 -8 112 -11 117 -2 4 1 7 6 7 6 0 11 -8 12 -17
0 -10 2 -26 4 -36 2 -10 9 -51 16 -90 7 -40 15 -78 19 -85 8 -17 142 107 211
196 63 81 79 97 55 57 -36 -59 -102 -141 -180 -222 l-79 -83 17 -123 c20 -141
23 -164 31 -232 3 -27 8 -67 11 -88 l6 -37 61 52 c88 76 212 203 265 273 26
33 50 65 55 70 5 6 29 42 53 80 24 39 44 67 44 63 0 -21 -163 -272 -204 -314
-6 -6 -36 -39 -66 -74 -30 -35 -88 -96 -129 -136 l-74 -73 2 -53 c2 -29 4 -69
6 -88 5 -57 18 -331 18 -388 1 -28 3 -52 5 -52 17 0 154 123 262 235 141 145
220 245 304 383 22 34 41 62 43 62 8 0 -50 -103 -114 -200 -108 -163 -220
-297 -396 -471 l-97 -96 -5 -299 c-3 -165 -6 -314 -8 -331 -2 -18 -2 -33 -1
-33 10 0 146 122 231 207 144 144 252 281 371 473 32 52 27 30 -9 -37 -100
-185 -259 -391 -470 -608 l-127 -130 -6 -80 c-13 -158 -17 -207 -30 -327 l-3
-27 26 20 c14 11 53 46 87 77 34 31 90 82 124 112 35 30 68 59 74 65 6 5 52
46 101 90 137 121 193 178 170 171 -11 -3 -42 -8 -70 -12 l-50 -6 85 65 c111
84 269 242 256 255 -2 2 -38 -3 -80 -11 -42 -8 -76 -13 -76 -12 0 1 21 19 48
39 79 61 172 157 223 230 27 38 49 73 49 78 0 9 -33 5 -90 -12 -71 -20 -70
-11 4 62 101 101 170 200 206 292 l9 24 -86 -29 c-48 -16 -88 -28 -89 -26 -2
1 14 20 35 42 50 53 125 164 155 229 24 53 58 156 51 156 -3 0 -152 -68 -167
-77 -4 -2 13 27 38 64 77 113 125 234 140 347 5 39 3 47 -8 40 -7 -4 -43 -27
-80 -51 -38 -24 -68 -41 -68 -38 0 3 16 38 36 77 55 110 72 175 81 312 l6 90
-77 -63 c-42 -34 -76 -58 -76 -54 0 5 4 13 8 19 11 11 40 112 52 179 10 58 6
220 -7 253 -8 22 -11 20 -62 -38 -30 -33 -55 -59 -57 -57 -2 2 1 28 6 58 16
79 14 215 -4 292 -15 65 -45 136 -46 110 0 -13 -67 -123 -74 -123 -2 0 -4 33
-5 73 -1 118 -25 216 -77 320 -30 57 -25 60 -60 -38 l-18 -49 -13 64 c-26 126
-60 205 -133 307 l-34 48 -7 -50 c-3 -27 -4 -53 -2 -57 2 -5 1 -8 -4 -8 -4 0
-19 27 -32 60 -34 91 -105 188 -194 269 -28 26 -29 24 -11 -36 9 -34 0 -28
-30 17 -31 48 -106 121 -161 160 -22 16 -59 49 -83 74 -23 25 -46 46 -50 46
-4 0 -26 -18 -47 -41z m396 -1652 c-10 -9 -11 -8 -5 6 3 10 9 15 12 12 3 -3 0
-11 -7 -18z"/>
</g>
</svg>
